<svg xmlns="http://www.w3.org/2000/svg" viewBox="0 0 85 85"><path fill="#e62129" d="M 42.00002,0 A 42,42 0 0 0 0,42.00002 42,42 0 0 0 42.00002,84.00004 42,42 0 0 0 83.12619,50.51785 H 74.38874 A 33.499999,33.499999 0 0 1 47.00023,75.11325 V 58.51788 H 67.99998 V 50.51785 H 47.00023 V 43.7932 h 20.99975 7.45019 8.51111 A 42,42 0 0 0 84.00008,42.00002 42,42 0 0 0 42.00006,0 Z m 0,8.50026 a 33.499999,33.499999 0 0 1 14.83372,3.49591 L 42.00002,30.98209 27.1663,11.99669 A 33.499999,33.499999 0 0 1 42.00002,8.50026 Z m -22.2679,8.59896 14.60531,18.69395 H 9.14466 A 33.499999,33.499999 0 0 1 19.73212,17.09922 Z m 44.53579,0 A 33.499999,33.499999 0 0 1 74.85589,35.79317 H 49.6626 Z M 8.64133,43.7932 h 28.35899 v 6.72465 H 16.00005 v 8.00003 H 37.00032 V 75.10705 A 33.499999,33.499999 0 0 1 8.64133,43.7932"/></svg>
